<?xml version="1.0" encoding="utf-8"?>
<!-- Generator: Adobe Illustrator 16.0.0, SVG Export Plug-In . SVG Version: 6.00 Build 0)  -->
<!DOCTYPE svg PUBLIC "-//W3C//DTD SVG 1.1//EN" "http://www.w3.org/Graphics/SVG/1.1/DTD/svg11.dtd">
<svg version="1.1" id="Layer_1" xmlns="http://www.w3.org/2000/svg" xmlns:xlink="http://www.w3.org/1999/xlink" x="0px" y="0px"
	 width="261px" height="88.5px" viewBox="11.82 30.5 261 88.5" enable-background="new 11.82 30.5 261 88.5" xml:space="preserve">
<g>
	<path fill="#4C4C4C" d="M49.181,43.119c-0.075-0.009-0.154-0.019-0.232-0.019H20.641c-0.833,0-1.509,0.703-1.509,1.573v25.348
		c-0.052,0.713-0.082,1.436-0.082,2.166c0,0.729,0.029,1.45,0.082,2.167v0.039c0,0.106,0.01,0.209,0.028,0.31
		c1.275,14.886,13.76,26.569,28.978,26.569c16.06,0,29.084-13.024,29.084-29.086C77.222,56.474,64.761,43.67,49.181,43.119z
		 M56.582,93.305h-3.577V56.584h-3.256v36.741h-3.313V70.267c-1.306-0.099-4.083-1.064-4.083-1.064l0,0
		c-3.022-0.568-5.327-3.658-5.327-7.382c0-3.643,2.206-6.677,5.123-7.341c0,0,0,0,0.002,0c0.168-0.352,3.019-0.517,4.286-0.571
		v-0.025h2.855h0.458h6.833V93.305z"/>
	<g>
		<path fill="#4C4C4C" d="M89.54,97.209V49.728h16.556c5.775,0,9.897,0.967,12.367,2.904c2.469,1.936,3.705,5.167,3.705,9.705
			c0,5.133-1.653,9.127-4.958,11.982c-3.303,2.855-7.928,4.283-13.876,4.283h-4.108v18.606H89.54z M99.226,72.091h1.926
			c3.38,0,6.05-0.789,8.006-2.359c1.957-1.572,2.935-3.706,2.935-6.403c0-4.727-3.006-7.091-9.017-7.091h-3.85V72.091z"/>
		<path fill="#4C4C4C" d="M153.13,96.02c-4.514,1.327-8.789,1.993-12.834,1.993c-5.882,0-10.523-1.668-13.921-5.006
			c-3.405-3.337-5.104-7.896-5.104-13.671c0-5.45,1.556-9.842,4.667-13.167c3.114-3.327,7.227-4.989,12.337-4.989
			c5.155,0,8.918,1.626,11.295,4.877c2.373,3.251,3.56,8.394,3.56,15.432h-21.847c0.642,6.716,4.332,10.071,11.065,10.071
			c3.189,0,6.783-0.734,10.782-2.213V96.02z M131.154,76.13h12.64c0-6.009-1.938-9.013-5.808-9.013
			C134.051,67.117,131.775,70.121,131.154,76.13z"/>
		<path fill="#4C4C4C" d="M157.562,97.209V46.551h9.496v50.658H157.562z"/>
		<path fill="#4C4C4C" d="M199.525,96.438c-3.933,1.052-7.578,1.574-10.938,1.574c-5.626,0-10.07-1.655-13.329-4.956
			c-3.263-3.307-4.894-7.803-4.894-13.492c0-5.754,1.679-10.255,5.035-13.506c3.358-3.251,7.999-4.878,13.928-4.878
			c2.864,0,6.17,0.458,9.912,1.378v6.868c-3.892-1.264-7.005-1.895-9.337-1.895c-2.845,0-5.133,1.091-6.863,3.274
			c-1.734,2.182-2.599,5.081-2.599,8.693c0,3.701,0.936,6.663,2.806,8.89c1.872,2.223,4.367,3.335,7.492,3.335
			c2.843,0,5.778-0.62,8.789-1.862v6.577H199.525z"/>
		<path fill="#4C4C4C" d="M203.123,97.209V61.983h9.495v6.642c2.459-4.963,6.202-7.442,11.229-7.442c0.597,0,1.188,0.063,1.764,0.19
			v8.472c-1.347-0.493-2.597-0.738-3.752-0.738c-3.788,0-6.869,1.913-9.241,5.744v22.36h-9.495V97.209z"/>
		<path fill="#4C4C4C" d="M242.395,98.013c-5.499,0-9.864-1.661-13.106-4.991c-3.239-3.322-4.86-7.796-4.86-13.426
			c0-5.689,1.63-10.179,4.893-13.473c3.261-3.293,7.693-4.94,13.3-4.94c5.621,0,10.067,1.646,13.328,4.94
			c3.262,3.294,4.893,7.766,4.893,13.411c0,5.776-1.635,10.297-4.909,13.568C252.661,96.378,248.149,98.013,242.395,98.013z
			 M242.552,92.075c5.458,0,8.184-4.18,8.184-12.541c0-3.831-0.723-6.856-2.164-9.082c-1.445-2.224-3.431-3.338-5.951-3.338
			c-2.504,0-4.478,1.114-5.92,3.338c-1.445,2.226-2.166,5.275-2.166,9.144c0,3.828,0.716,6.865,2.147,9.109
			C238.117,90.955,240.073,92.075,242.552,92.075z"/>
	</g>
</g>
</svg>
